/* XPM */
static char * C:\Users\cmartin92\github\RyanBucks\share\pixmaps\bitcoin16_xpm[] = {
"16 16 185 2",
"  	c None",
". 	c #DABC36",
"+ 	c #D3AA49",
"@ 	c #D2A849",
"# 	c #D9BB37",
"$ 	c #C89E58",
"% 	c #9944AC",
"& 	c #8408D4",
"* 	c #6F00F3",
"= 	c #6A00FC",
"- 	c #7100F7",
"; 	c #8416D4",
"> 	c #C18E66",
", 	c #FBF702",
"' 	c #A65E93",
") 	c #7400EF",
"! 	c #6D00FB",
"~ 	c #8004D9",
"{ 	c #A85097",
"] 	c #C58D61",
"^ 	c #CC9851",
"/ 	c #9C3FA9",
"( 	c #6800FF",
"_ 	c #9F4BA5",
": 	c #F9F108",
"< 	c #A75B8F",
"[ 	c #6B00FE",
"} 	c #7800E6",
"| 	c #B16689",
"1 	c #D7B63D",
"2 	c #DAC52E",
"3 	c #CFAD43",
"4 	c #DAC728",
"5 	c #FFFF00",
"6 	c #B86F76",
"7 	c #6100FF",
"8 	c #A344A3",
"9 	c #C89956",
"0 	c #7000F5",
"a 	c #8610D1",
"b 	c #D6B63F",
"c 	c #E7DB18",
"d 	c #AD6D7F",
"e 	c #871FC6",
"f 	c #7700E8",
"g 	c #7000F2",
"h 	c #CCA549",
"i 	c #E8D221",
"j 	c #8103D6",
"k 	c #7500F2",
"l 	c #C0836B",
"m 	c #9837AD",
"n 	c #6B00FF",
"o 	c #C38B5F",
"p 	c #E1D21F",
"q 	c #7100E9",
"r 	c #DABC3C",
"s 	c #BC7572",
"t 	c #8301D5",
"u 	c #7100F6",
"v 	c #C18468",
"w 	c #DCC030",
"x 	c #7D00DE",
"y 	c #820AD2",
"z 	c #AA25BA",
"A 	c #DABA35",
"B 	c #850BD2",
"C 	c #8914C9",
"D 	c #9B3CA3",
"E 	c #7E02DA",
"F 	c #8B1ACB",
"G 	c #FDFE00",
"H 	c #9433B0",
"I 	c #6600FF",
"J 	c #9F48A9",
"K 	c #E8DB19",
"L 	c #9737A9",
"M 	c #860DD2",
"N 	c #8F20BC",
"O 	c #8E02D8",
"P 	c #C2A44A",
"Q 	c #D1A74B",
"R 	c #7E00DA",
"S 	c #9123BA",
"T 	c #8A15C8",
"U 	c #7700EB",
"V 	c #B87275",
"W 	c #E5D51D",
"X 	c #B4717C",
"Y 	c #C0916A",
"Z 	c #CDAB46",
"` 	c #9C45A0",
" .	c #7D00DF",
"..	c #9225B9",
"+.	c #9021BD",
"@.	c #7C00DF",
"#.	c #CC9259",
"$.	c #D2A84B",
"%.	c #7D00DA",
"&.	c #8F1FBF",
"*.	c #9021BC",
"=.	c #E2C72B",
"-.	c #BA8269",
";.	c #B98169",
">.	c #7E07D6",
",.	c #7D00E3",
"'.	c #9326B7",
").	c #8F21BD",
"!.	c #7B00DE",
"~.	c #CB9259",
"{.	c #D6B43B",
"].	c #8509D2",
"^.	c #8D1CC1",
"/.	c #850BD0",
"(.	c #9731B1",
"_.	c #F7F600",
":.	c #9229B7",
"<.	c #7500EB",
"[.	c #F8F500",
"}.	c #AC5C8D",
"|.	c #8D19C1",
"1.	c #8409D2",
"2.	c #9021BA",
"3.	c #8C02D9",
"4.	c #C1A04F",
"5.	c #9A34B1",
"6.	c #8207D6",
"7.	c #BE806B",
"8.	c #E5D221",
"9.	c #8105D5",
"0.	c #7900E8",
"a.	c #C39057",
"b.	c #8517D2",
"c.	c #8714CF",
"d.	c #B26780",
"e.	c #7D09D8",
"f.	c #A721BD",
"g.	c #BAD91E",
"h.	c #C48F61",
"i.	c #7400F0",
"j.	c #7E00DD",
"k.	c #EEE015",
"l.	c #D5AF3E",
"m.	c #7800E8",
"n.	c #8D19C5",
"o.	c #7E05D9",
"p.	c #DDC926",
"q.	c #F5F206",
"r.	c #DFCD29",
"s.	c #B16E79",
"t.	c #BE7A72",
"u.	c #A54E9A",
"v.	c #6C00FC",
"w.	c #C38F59",
"x.	c #A7548C",
"y.	c #850FD1",
"z.	c #9226B7",
"A.	c #870FD0",
"B.	c #830CCF",
"C.	c #B6796B",
"D.	c #A75589",
"E.	c #6500FF",
"F.	c #AA3FA8",
"G.	c #EBE70E",
"H.	c #A85399",
"I.	c #6400FF",
"J.	c #7700E9",
"K.	c #9223B8",
"L.	c #8F20BE",
"M.	c #9226B8",
"N.	c #8B14C6",
"O.	c #6E00FF",
"P.	c #A541A7",
"Q.	c #E3D91B",
"R.	c #BF8968",
"S.	c #9832B8",
"T.	c #8A0CD5",
"U.	c #7E00DE",
"V.	c #972DBB",
"W.	c #B97E73",
"X.	c #C5A84B",
"Y.	c #C79557",
"Z.	c #C89457",
"`.	c #C4A34F",
" +	c #E2DE16",
"            . + @ #             ",
"        $ % & * = - ; >         ",
"    , ' ) ! ~ { ] ^ / ( _ :     ",
"    < [ } | 1 2 3 4 5 6 7 8     ",
"  9 0 a b c d e f g h i j k l   ",
"  m n o p q r s t u v w x y z   ",
"A B C D E F G H I J K L M N O P ",
"Q R S T U V W X Y Z `  ...+.@.#.",
"$.%.&.*. .=.-.;.5 >.,.'.).).!.~.",
"{.].^./.(._.:.<.[.}.f |.1.2.3.4.",
"  5.6.x 7.8.9.0.a.5 b.c.d.e.f.g.",
"  h.i.j.k.l.m.n.o.p.q.r.s.n t.  ",
"    u.v.w.x.y.z.A.B.C.D.E.F.    ",
"    G.H.I.J.K.L.M.N.u O.P.Q.    ",
"        R.S.T.U. .T.V.W.        ",
"            X.Y.Z.`. +          "};
