/* XPM */
static char * C:\Users\cmartin92\github\RyanBucks\share\pixmaps\bitcoin32_xpm[] = {
"32 32 546 2",
"  	c None",
". 	c #F1EE06",
"+ 	c #F9F508",
"@ 	c #FCF30D",
"# 	c #FCF20D",
"$ 	c #F6F709",
"% 	c #EEEB03",
"& 	c #F8ED05",
"* 	c #F1E40F",
"= 	c #DCBD35",
"- 	c #CB9957",
"; 	c #BC7C6C",
"> 	c #B9786C",
", 	c #B97A6A",
"' 	c #BC786D",
") 	c #C9925D",
"! 	c #D8B53D",
"~ 	c #EDDE14",
"{ 	c #F2EF04",
"] 	c #F5EB07",
"^ 	c #E8D71C",
"/ 	c #BF8A66",
"( 	c #9E49A3",
"_ 	c #8A17C7",
": 	c #8006D9",
"< 	c #7D00DE",
"[ 	c #7E00DE",
"} 	c #7E00DD",
"| 	c #7D00DD",
"1 	c #7F04DA",
"2 	c #8712CB",
"3 	c #993BAD",
"4 	c #BE7874",
"5 	c #E5CC28",
"6 	c #F2EE06",
"7 	c #F3EE07",
"8 	c #C3965E",
"9 	c #8E29C0",
"0 	c #7A00E5",
"a 	c #7F03DA",
"b 	c #8A15C7",
"c 	c #901FBD",
"d 	c #9123BA",
"e 	c #9124BA",
"f 	c #8F20BE",
"g 	c #8C1AC3",
"h 	c #870FCC",
"i 	c #8409D2",
"j 	c #8003DA",
"k 	c #7900E3",
"l 	c #8716CD",
"m 	c #BB7C73",
"n 	c #F4E510",
"o 	c #E7DF13",
"p 	c #EFDF11",
"q 	c #EADE17",
"r 	c #A0519D",
"s 	c #7600EC",
"t 	c #840BD2",
"u 	c #9122BA",
"v 	c #9123BB",
"w 	c #9225B9",
"x 	c #8D1BC1",
"y 	c #8105D8",
"z 	c #7C00E0",
"A 	c #8913C9",
"B 	c #942AB5",
"C 	c #9329B5",
"D 	c #860FCE",
"E 	c #7800E7",
"F 	c #9432B6",
"G 	c #E7CD28",
"H 	c #EFE70B",
"I 	c #EFDE11",
"J 	c #912CBA",
"K 	c #901FBB",
"L 	c #8B18C5",
"M 	c #7A00E4",
"N 	c #820BD5",
"O 	c #9F46A0",
"P 	c #BA7771",
"Q 	c #D0A44C",
"R 	c #DDBB38",
"S 	c #E5CB29",
"T 	c #E1C829",
"U 	c #DABB37",
"V 	c #BB7A70",
"W 	c #840AD2",
"X 	c #8B18C4",
"Y 	c #8112D6",
"Z 	c #EBC231",
"` 	c #EBE80B",
" .	c #EADD18",
"..	c #912DBA",
"+.	c #9325B7",
"@.	c #8F1EBE",
"#.	c #7B00E2",
"$.	c #AF6483",
"%.	c #D9B63E",
"&.	c #FAF407",
"*.	c #FFFF00",
"=.	c #FAFF00",
"-.	c #F0F000",
";.	c #EFEA04",
">.	c #F3E90C",
",.	c #ECDA1C",
"'.	c #FDFF00",
").	c #CC9C51",
"!.	c #7F04DB",
"~.	c #9224B8",
"{.	c #8104D8",
"].	c #8010D6",
"^.	c #E6CA29",
"/.	c #F2DB16",
"(.	c #F2ED09",
"_.	c #A24E9B",
":.	c #9326B7",
"<.	c #9326B8",
"[.	c #850ED0",
"}.	c #7900E5",
"|.	c #A55295",
"1.	c #E1C232",
"2.	c #FCFF00",
"3.	c #D5BF27",
"4.	c #B7845D",
"5.	c #A75F7C",
"6.	c #9A4496",
"7.	c #9C4D92",
"8.	c #BF984C",
"9.	c #EADE12",
"0.	c #E1C42F",
"a.	c #F4EE08",
"b.	c #A1449E",
"c.	c #8103D8",
"d.	c #9429B5",
"e.	c #7C00DF",
"f.	c #8E27BE",
"g.	c #F6DE14",
"h.	c #F5ED04",
"i.	c #C3925E",
"j.	c #9120BC",
"k.	c #8414D1",
"l.	c #CCA051",
"m.	c #FEFF00",
"n.	c #C5A142",
"o.	c #8D36A9",
"p.	c #7A01D4",
"q.	c #8000DF",
"r.	c #8405D9",
"s.	c #8200E0",
"t.	c #7200EE",
"u.	c #B27B68",
"v.	c #EEE112",
"w.	c #F1E610",
"x.	c #B66F77",
"y.	c #9021BD",
"z.	c #7500EC",
"A.	c #B86980",
"B.	c #F3F105",
"C.	c #E6D520",
"D.	c #8F23BF",
"E.	c #9226B9",
"F.	c #8A1BC6",
"G.	c #E1C82C",
"H.	c #E1D314",
"I.	c #A15C82",
"J.	c #7D0DD8",
"K.	c #9430C0",
"L.	c #982CB6",
"M.	c #9023BB",
"N.	c #9022BC",
"O.	c #9124B9",
"P.	c #890ECF",
"Q.	c #830AD3",
"R.	c #D9BD30",
"S.	c #F8F504",
"T.	c #B77472",
"U.	c #8F21BD",
"V.	c #8007D8",
"W.	c #EDB936",
"X.	c #F7F103",
"Y.	c #BE8468",
"Z.	c #7900E6",
"`.	c #9224B9",
" +	c #8D1DC1",
".+	c #8004D9",
"++	c #D3A748",
"@+	c #CEB331",
"#+	c #811CC6",
"$+	c #7300F2",
"%+	c #D4AE40",
"&+	c #DDC031",
"*+	c #8308D2",
"=+	c #8E1BC3",
"-+	c #8D1CC1",
";+	c #860CCE",
">+	c #D3AB43",
",+	c #AC5F85",
"'+	c #9226B8",
")+	c #7700E6",
"!+	c #C06085",
"~+	c #E2EE0A",
"{+	c #F0E50F",
"]+	c #A0449F",
"^+	c #7F00DB",
"/+	c #870FCB",
"(+	c #F1EB09",
"_+	c #D9C724",
":+	c #7A05DC",
"<+	c #8103E1",
"[+	c #D6B13C",
"}+	c #FBFB00",
"|+	c #CFA645",
"1+	c #8207D3",
"2+	c #8E1DC0",
"3+	c #8409D3",
"4+	c #9128B7",
"5+	c #EFDF18",
"6+	c #EBDF11",
"7+	c #912AB1",
"8+	c #870CD0",
"9+	c #860ECD",
"0+	c #9624BA",
"a+	c #F3CD24",
"b+	c #DCBC35",
"c+	c #8A18C7",
"d+	c #8A16C7",
"e+	c #8911CB",
"f+	c #AB6978",
"g+	c #8F2BB6",
"h+	c #8508D8",
"i+	c #8A15C5",
"j+	c #9124BB",
"k+	c #E1C62B",
"l+	c #F6F305",
"m+	c #B77670",
"n+	c #9122BB",
"o+	c #9020BC",
"p+	c #7000F4",
"q+	c #BA7675",
"r+	c #B9835E",
"s+	c #7B00E4",
"t+	c #9020BD",
"u+	c #7E01DB",
"v+	c #E49C4E",
"w+	c #EEEC07",
"x+	c #CB9657",
"y+	c #8002D9",
"z+	c #8202D9",
"A+	c #9328B5",
"B+	c #A55095",
"C+	c #F1E70F",
"D+	c #EEE30F",
"E+	c #A14698",
"F+	c #7400F1",
"G+	c #8205D6",
"H+	c #820AD5",
"I+	c #7200F1",
"J+	c #A85497",
"K+	c #D5BE28",
"L+	c #8009D3",
"M+	c #8B14CC",
"N+	c #7C00DE",
"O+	c #C9786F",
"P+	c #D5E313",
"Q+	c #FAF10B",
"R+	c #BB7E6A",
"S+	c #7C00E1",
"T+	c #C28A61",
"U+	c #FAF701",
"V+	c #DBC12D",
"W+	c #7A01DE",
"X+	c #9A39AD",
"Y+	c #A34B98",
"Z+	c #9534B7",
"`+	c #D1A651",
" @	c #C7A63D",
".@	c #7E0BD3",
"+@	c #860BD5",
"@@	c #9225B8",
"#@	c #B05D89",
"$@	c #ECE411",
"%@	c #F9EE12",
"&@	c #BB7F67",
"*@	c #7D00DC",
"=@	c #DEC12F",
"-@	c #F9F600",
";@	c #AE6E7B",
">@	c #AB5F94",
",@	c #EDDD18",
"'@	c #EDE010",
")@	c #E0D612",
"!@	c #9F528B",
"~@	c #7A00E2",
"{@	c #890FD2",
"]@	c #9126B7",
"^@	c #AE5E87",
"/@	c #EEE311",
"(@	c #F7EF11",
"_@	c #BD8066",
":@	c #A85392",
"<@	c #F3EA0C",
"[@	c #E9D918",
"}@	c #983DA3",
"|@	c #C39F48",
"1@	c #E6D816",
"2@	c #F0E018",
"3@	c #CFAC43",
"4@	c #7200E7",
"5@	c #8000E2",
"6@	c #8F1FC1",
"7@	c #8F20BF",
"8@	c #AF5F86",
"9@	c #EDE312",
"0@	c #FBF50E",
"a@	c #BA7A6A",
"b@	c #C89657",
"c@	c #FDFC00",
"d@	c #D4B339",
"e@	c #850ECD",
"f@	c #7300E7",
"g@	c #AC667A",
"h@	c #FAF800",
"i@	c #E0C42F",
"j@	c #8D1AC6",
"k@	c #8912C9",
"l@	c #9022BD",
"m@	c #AE5B8A",
"n@	c #EDE80C",
"o@	c #C89259",
"p@	c #7F01DA",
"q@	c #8F21BE",
"r@	c #870FCD",
"s@	c #9125BB",
"t@	c #E5CE24",
"u@	c #F8F501",
"v@	c #B37272",
"w@	c #8404D9",
"x@	c #942EAF",
"y@	c #E7D719",
"z@	c #F8F403",
"A@	c #B36A7D",
"B@	c #7800E8",
"C@	c #C47373",
"D@	c #D9E214",
"E@	c #DAB639",
"F@	c #8811CB",
"G@	c #8B19C5",
"H@	c #AD5E88",
"I@	c #F6F006",
"J@	c #E6D51B",
"K@	c #9430AE",
"L@	c #8509D4",
"M@	c #7F03D8",
"N@	c #CFA941",
"O@	c #F8F205",
"P@	c #DFC42D",
"Q@	c #830CD3",
"R@	c #8812CA",
"S@	c #8F1FBF",
"T@	c #8C19C4",
"U@	c #8A17C6",
"V@	c #DF9853",
"W@	c #ECDD14",
"X@	c #9E3DA7",
"Y@	c #8104D7",
"Z@	c #9023BC",
"`@	c #CB9B52",
" #	c #FCFE00",
".#	c #CDA646",
"+#	c #8004D7",
"@#	c #8F1EC0",
"##	c #7D00E1",
"$#	c #A75A85",
"%#	c #F1EA09",
"&#	c #F4EA0B",
"*#	c #C08766",
"=#	c #7100F4",
"-#	c #8D1BC0",
";#	c #9328B7",
">#	c #8814CB",
",#	c #850DD0",
"'#	c #962CB3",
")#	c #8E1EC0",
"!#	c #911DC1",
"~#	c #ECC62B",
"{#	c #F2F307",
"]#	c #BD7770",
"^#	c #7900E7",
"/#	c #8913CA",
"(#	c #8E1FC0",
"_#	c #E0C62C",
":#	c #F8F502",
"<#	c #B67372",
"[#	c #8F20BD",
"}#	c #8D1BC3",
"|#	c #7E03D8",
"1#	c #D3B731",
"2#	c #F2E613",
"3#	c #F0E40F",
"4#	c #B16C80",
"5#	c #7600EB",
"6#	c #DBBB3C",
"7#	c #BA7A6C",
"8#	c #9327B7",
"9#	c #7A00E3",
"0#	c #B8578E",
"a#	c #E2EA0C",
"b#	c #E3C826",
"c#	c #8914C9",
"d#	c #8711CC",
"e#	c #8103D9",
"f#	c #A1469D",
"g#	c #EFE411",
"h#	c #ECDF13",
"i#	c #9F439D",
"j#	c #9125B9",
"k#	c #8202DD",
"l#	c #9131AB",
"m#	c #EEEC03",
"n#	c #EFDD1C",
"o#	c #EFE212",
"p#	c #C79758",
"q#	c #AD5C8B",
"r#	c #E9D026",
"s#	c #F5FB00",
"t#	c #8B22BA",
"u#	c #8810CE",
"v#	c #8F1EBF",
"w#	c #7D00DF",
"x#	c #EAAA43",
"y#	c #F5F306",
"z#	c #BD7B6D",
"A#	c #7400ED",
"B#	c #8F22BD",
"C#	c #BB7871",
"D#	c #FAF503",
"E#	c #E8D420",
"F#	c #9228B5",
"G#	c #870DCF",
"H#	c #7D00E5",
"I#	c #9C4D90",
"J#	c #E9E506",
"K#	c #F3EA0F",
"L#	c #FBF603",
"M#	c #EDF000",
"N#	c #902DAA",
"O#	c #8001DE",
"P#	c #962CB1",
"Q#	c #7700E9",
"R#	c #AD5293",
"S#	c #F3F005",
"T#	c #F2E80D",
"U#	c #9733B0",
"V#	c #9327B6",
"W#	c #7D00E2",
"X#	c #CA9F4B",
"Y#	c #D6C126",
"Z#	c #8E21BC",
"`#	c #8911CC",
" $	c #9122BC",
".$	c #7D00E4",
"+$	c #902FA8",
"@$	c #C2994A",
"#$	c #CEB135",
"$$	c #BA8C53",
"%$	c #881DBC",
"&$	c #8000E0",
"*$	c #952AB3",
"=$	c #8209D5",
"-$	c #8513D0",
";$	c #EFD61D",
">$	c #E6D918",
",$	c #E9D320",
"'$	c #8515D0",
")$	c #901FBF",
"!$	c #9739A4",
"~$	c #A0538C",
"{$	c #8B1FB9",
"]$	c #8C19C5",
"^$	c #8608D6",
"/$	c #7E00DB",
"($	c #830DCD",
"_$	c #7E00DF",
":$	c #880DD2",
"<$	c #952BB2",
"[$	c #8611CE",
"}$	c #E2B738",
"|$	c #E5E213",
"1$	c #E9D121",
"2$	c #8415D2",
"3$	c #8C13C8",
"4$	c #8200DF",
"5$	c #8A13CC",
"6$	c #8109D6",
"7$	c #DCAE3F",
"8$	c #E4DD17",
"9$	c #ECD51F",
"0$	c #932FB9",
"a$	c #8B17C4",
"b$	c #9227B8",
"c$	c #8E1CC0",
"d$	c #7700E8",
"e$	c #8519CF",
"f$	c #E3B539",
"g$	c #EFED0A",
"h$	c #E4D81A",
"i$	c #F6E80D",
"j$	c #BE7776",
"k$	c #830BD4",
"l$	c #7700E7",
"m$	c #850DCF",
"n$	c #8812CB",
"o$	c #7D05DF",
"p$	c #B25A8D",
"q$	c #F3D61A",
"r$	c #DEE313",
"s$	c #EEEF06",
"t$	c #E7C32F",
"u$	c #BB697D",
"v$	c #952BB6",
"w$	c #8109D9",
"x$	c #7E00DC",
"y$	c #7F00DC",
"z$	c #7E05DC",
"A$	c #901FC0",
"B$	c #B3618A",
"C$	c #DDB23F",
"D$	c #ECEF07",
"E$	c #E9EC0A",
"F$	c #D6A948",
"G$	c #CD8167",
"H$	c #B56482",
"I$	c #AF6085",
"J$	c #B06283",
"K$	c #B36183",
"L$	c #C77A6E",
"M$	c #D5A14E",
"N$	c #E5C928",
"O$	c #EBEA0B",
"P$	c #D0E017",
"Q$	c #E6E312",
"R$	c #EDE311",
"S$	c #EDE212",
"T$	c #E8E412",
"U$	c #D5E117",
"                          . + @ # $ %                           ",
"                    & * = - ; > , ' ) ! ~ {                     ",
"                ] ^ / ( _ : < [ } | 1 2 3 4 5 6                 ",
"              7 8 9 0 a b c d e f g h i j k l m n o             ",
"          p q r s t u v w x y z y A B C D } i E F G H           ",
"        I q J s K d w L M N O P Q R S T U V W X | Y Z `         ",
"         ...0 +.e @.#.t $.%.&.*.=.-.;.>.,.'.).!.~.{.].^./.      ",
"      (._.s :.<.[.}.|.1.*.2.3.4.5.6.7.8.9.0.a.b.c.d.e.f.g.      ",
"    h.i.s j.:.{.k.l.*.m.n.o.p.1 q.r.s.t.u.v.w.x.[ y.:.z.A.B.    ",
"    C.D.i E.D F.G.*.H.I.J.K.L.L M.N.O.P.Q.R.S.T.} y.U.X V.W.    ",
"  X.Y.Z.`. +.+++*.@+#+$+%+*.&+*+=+f f -+;+>+'.,+[ N.f '+)+!+~+  ",
"  {+]+^+M.L /+(+_+:+<+/+[+}+|+1+2+f v 3+4+5+6+7+8+N.f N.9+0+a+  ",
"  b+c+d+U.f e+f+g+h+i+j+k+l+m+[ e n+o+p+q+*.r+s+v f f f t+u+v+  ",
"w+x+y+f f U.e z+e+A+} B+C+D+E+F+G+H+I+J+*.K+L+M+N.f f f N.N+O+P+",
"Q+R+< y.f f f y.f M.S+T+U+V+W+X+Y+Z+`+*. @.@+@@@f f f f N.^+#@$@",
"%@&@*@y.f f f f y.b d+=@-@;@>@*.,@'@)@!@~@{@]@f f f f f N.^+^@/@",
"(@_@} y.f f f f v < :@<@[@}@|@1@2@3@4@5@6@e 7@f f f f f N.^+8@9@",
"0@a@< y.f f f f N.z b@c@d@e@f@g@h@i@j@k@l@f f f f f f f N.^+m@9@",
"n@o@p@q@f f f N.r@s@t@u@v@S+w@x@y@z@A@B@@@f f f f q@f f N.N+C@D@",
"  E@F@G@q@f f M.z H@I@J@K@L@y.M@N@O@P@Q@R@v S@v T@U@v f N.< V@  ",
"  W@X@Y@Z@f f U.} `@ #.#+#@#d ##$#%#&#*#=#-#;#>#,#'#)#y.R@!#~#  ",
"  {#]#^#w f y./#(#_#:#<#S+v [#}#|#1#2#3#4#5#E M 6#7#z 8#9#0#a#  ",
"    b#c#d#l@N.e#f#g#h#i#c.N.f j#k#l#m#n#o#p#q#r#s#t#u#v#w#x#    ",
"    y#z#A#`.B#| C#D#E#F#G#y.f f w H#I#J#K#L#*.M#N#O#P#Q#R#S#    ",
"      T#U#9#V#W#X#*.Y#Z#`#U.f f U. $.$+$@$#$$$%$&$*$=$-$;$      ",
"      >$,$'$p@)$!$~${$]$l@f f f f U.`.^$/$($_$:$<$[$)+}$|$      ",
"        $@1$2$*@3$4$5$M.U.f f f f f f N.7@=+y.d.6$E 7$&#        ",
"          8$9$0$A#a$b$y.f f f f f f f f y.`.c$d$e$f$g$          ",
"            h$i$j$k$l$m$@.N.N.N.N.N.N.t+n$k o$p$q$r$            ",
"                s$t$u$v$w$e.x$y$/$x$< z$A$B$C$D$                ",
"                    E$,$F$G$H$I$J$K$L$M$N$O$                    ",
"                          P$Q$R$S$T$U$                          "};
